<svg width="20" height="20" viewBox="0 0 20 20" fill="none" xmlns="http://www.w3.org/2000/svg">
<path opacity="0.5" d="M9.67232 18.3333H10.3281C12.5843 18.3333 13.7124 18.3333 14.4459 17.6139C15.1794 16.8946 15.2545 15.7147 15.4046 13.3548L15.6208 9.95425C15.7022 8.67383 15.743 8.03358 15.375 7.62788C15.007 7.22217 14.3856 7.22217 13.1428 7.22217H6.85752C5.61474 7.22217 4.99335 7.22217 4.62537 7.62788C4.25741 8.03358 4.29812 8.67383 4.37956 9.95425L4.59582 13.3548C4.7459 15.7147 4.82094 16.8946 5.55443 17.6139C6.28792 18.3333 7.41604 18.3333 9.67232 18.3333Z" fill="#DC2626"/>
<path d="M2.5 5.43659C2.5 5.10785 2.77226 4.84135 3.10811 4.84135H7.09822C7.10364 4.14033 7.17962 3.17928 7.87531 2.51398C8.42283 1.99041 9.17342 1.66675 10 1.66675C10.8266 1.66675 11.5772 1.99041 12.1247 2.51398C12.8203 3.17928 12.8963 4.14033 12.9017 4.84135H16.8919C17.2277 4.84135 17.5 5.10785 17.5 5.43659C17.5 5.76533 17.2277 6.03183 16.8919 6.03183H3.10811C2.77226 6.03183 2.5 5.76533 2.5 5.43659Z" fill="#DC2626"/>
</svg>
