<svg width="20" height="20" viewBox="0 0 20 20" fill="none" xmlns="http://www.w3.org/2000/svg">
<path d="M12.7391 2.62681L11.9668 3.39921L4.8657 10.5002C4.38474 10.9812 4.14425 11.2217 3.93744 11.4868C3.69346 11.7997 3.4843 12.1381 3.31364 12.4962C3.16896 12.7997 3.06142 13.1224 2.84632 13.7677L1.93486 16.5021L1.71206 17.1705C1.60621 17.488 1.68885 17.8381 1.92554 18.0748C2.16224 18.3115 2.51234 18.3942 2.82989 18.2883L3.49829 18.0655L6.23267 17.154C6.87795 16.9389 7.2006 16.8314 7.50417 16.6867C7.86226 16.5161 8.2007 16.3069 8.51352 16.0629C8.77869 15.8561 9.0191 15.6156 9.5001 15.1347L16.6011 8.0336L17.3735 7.26121C18.6533 5.98145 18.6533 3.90656 17.3735 2.62681C16.0938 1.34705 14.0189 1.34705 12.7391 2.62681Z" stroke="#636363" stroke-width="1.5"/>
<path opacity="0.5" d="M11.9667 3.39844C11.9667 3.39844 12.0632 5.03979 13.5115 6.48804C14.9597 7.93629 16.6011 8.03284 16.6011 8.03284M3.49824 18.0648L1.93481 16.5013" stroke="#636363" stroke-width="1.5"/>
</svg>
