<svg width="26" height="26" viewBox="0 0 26 26" fill="none" xmlns="http://www.w3.org/2000/svg">
<path d="M8.66852 7.58317C8.68164 5.22689 8.78612 3.95082 9.61854 3.11841C10.5704 2.1665 12.1025 2.1665 15.1667 2.1665H16.25C19.3141 2.1665 20.8461 2.1665 21.7981 3.11841C22.75 4.07031 22.75 5.60237 22.75 8.6665V17.3332C22.75 20.3973 22.75 21.9293 21.7981 22.8812C20.8461 23.8332 19.3141 23.8332 16.25 23.8332H15.1667C12.1025 23.8332 10.5704 23.8332 9.61854 22.8812C8.78612 22.0488 8.68164 20.7728 8.66852 18.4165" stroke="white" stroke-width="1.5" stroke-linecap="round"/>
<path opacity="0.5" d="M8.66667 21.125C6.11323 21.125 4.83651 21.125 4.04325 20.3318C3.25 19.5385 3.25 18.2618 3.25 15.7083V10.2917C3.25 7.73823 3.25 6.46151 4.04325 5.66825C4.83651 4.875 6.11323 4.875 8.66667 4.875" stroke="white" stroke-width="1.5"/>
<path d="M16.25 12.9997H6.5M6.5 12.9997L8.66667 15.1663M6.5 12.9997L8.66667 10.833" stroke="white" stroke-width="1.5" stroke-linecap="round" stroke-linejoin="round"/>
</svg>
