<svg width="9" height="11" viewBox="0 0 9 11" fill="none" xmlns="http://www.w3.org/2000/svg">
<path opacity="0.5" d="M4.31983 10.0838H4.68049C5.92143 10.0838 6.54187 10.0838 6.9453 9.68812C7.34872 9.29249 7.39002 8.64353 7.47256 7.34558L7.5915 5.4753C7.63628 4.77107 7.65869 4.41894 7.45629 4.1958C7.25389 3.97266 6.91216 3.97266 6.2286 3.97266H2.77169C2.08816 3.97266 1.74639 3.97266 1.54401 4.1958C1.34163 4.41894 1.36402 4.77107 1.40881 5.4753L1.52775 7.34558C1.6103 8.64353 1.65157 9.29249 2.05499 9.68812C2.45841 10.0838 3.07887 10.0838 4.31983 10.0838Z" fill="white"/>
<path d="M0.375 2.99041C0.375 2.8096 0.524742 2.66302 0.70946 2.66302H2.90402C2.907 2.27746 2.94879 1.74889 3.33142 1.38297C3.63256 1.095 4.04538 0.916992 4.5 0.916992C4.95462 0.916992 5.36744 1.095 5.66857 1.38297C6.05118 1.74889 6.09298 2.27746 6.09596 2.66302H8.29055C8.47526 2.66302 8.625 2.8096 8.625 2.99041C8.625 3.17121 8.47526 3.31779 8.29055 3.31779H0.70946C0.524742 3.31779 0.375 3.17121 0.375 2.99041Z" fill="white"/>
</svg>
