<svg width="27" height="29" viewBox="0 0 27 29" fill="none" xmlns="http://www.w3.org/2000/svg">
<path d="M9 15.5986H11.8125" stroke="white" stroke-width="1.5" stroke-linecap="round"/>
<path d="M9 10.8522H16.3125" stroke="white" stroke-width="1.5" stroke-linecap="round"/>
<path d="M20.4525 9.71251L20.974 9.1626C21.8377 8.25147 23.2384 8.25147 24.1021 9.1626C24.966 10.0737 24.966 11.551 24.1021 12.4621L23.5808 13.0121M20.4525 9.71251C20.4525 9.71251 20.5178 10.8811 21.4953 11.9122C22.4729 12.9432 23.5808 13.0121 23.5808 13.0121M20.4525 9.71251L15.6593 14.7681C15.3347 15.1106 15.1723 15.2818 15.0327 15.4706C14.8681 15.6933 14.7269 15.9343 14.6117 16.1892C14.5141 16.4054 14.4414 16.635 14.2963 17.0944L13.8314 18.5653L13.681 19.0412M23.5808 13.0121L18.7876 18.0677C18.463 18.4101 18.3006 18.5814 18.1216 18.7286C17.9105 18.9022 17.682 19.0511 17.4403 19.1726C17.2354 19.2756 17.0177 19.3523 16.5821 19.5054L15.1875 19.9957L14.7364 20.1543M13.681 19.0412L13.5306 19.5171C13.4592 19.7432 13.515 19.9925 13.6747 20.161C13.8345 20.3295 14.0708 20.3883 14.2852 20.313L14.7364 20.1543M13.681 19.0412L14.7364 20.1543" stroke="white" stroke-width="1.5"/>
<path d="M9 20.3452H10.6875" stroke="white" stroke-width="1.5" stroke-linecap="round"/>
<path opacity="0.5" d="M3.375 12.0389C3.375 7.56399 3.375 5.32652 4.69302 3.93633C6.01104 2.54614 8.13236 2.54614 12.375 2.54614H14.625C18.8676 2.54614 20.989 2.54614 22.3069 3.93633C23.625 5.32652 23.625 7.56399 23.625 12.0389V16.7853C23.625 21.2602 23.625 23.4978 22.3069 24.8879C20.989 26.2781 18.8676 26.2781 14.625 26.2781H12.375C8.13236 26.2781 6.01104 26.2781 4.69302 24.8879C3.375 23.4978 3.375 21.2602 3.375 16.7853V12.0389Z" stroke="white" stroke-width="1.5"/>
</svg>
