<svg width="26" height="27" viewBox="0 0 26 27" fill="none" xmlns="http://www.w3.org/2000/svg">
<path opacity="0.5" d="M1.33331 13.5877C1.33331 7.78684 1.33331 4.88641 3.04186 3.08433C4.7504 1.28223 7.50026 1.28223 13 1.28223C18.4996 1.28223 21.2496 1.28223 22.9581 3.08433C24.6666 4.88641 24.6666 7.78684 24.6666 13.5877C24.6666 19.3885 24.6666 22.289 22.9581 24.091C21.2496 25.8932 18.4996 25.8932 13 25.8932C7.50026 25.8932 4.7504 25.8932 3.04186 24.091C1.33331 22.289 1.33331 19.3885 1.33331 13.5877Z" stroke="white" stroke-width="1.5"/>
<path d="M7.16663 16.0487L9.263 13.3952C10.0937 12.3438 10.5091 11.818 11.0555 11.818C11.6019 11.818 12.0173 12.3438 12.8481 13.3952L13.1519 13.7799C13.9826 14.8313 14.398 15.3571 14.9444 15.3571C15.4908 15.3571 15.9062 14.8313 16.7369 13.7799L18.8333 11.1265" stroke="white" stroke-width="1.5" stroke-linecap="round"/>
</svg>
