<svg width="26" height="26" viewBox="0 0 26 26" fill="none" xmlns="http://www.w3.org/2000/svg">
<path d="M16.9874 15.8023C20.7684 15.8023 23.8334 12.7498 23.8334 8.9844C23.8334 5.21898 20.7684 2.1665 16.9874 2.1665C13.2066 2.1665 10.1416 5.21898 10.1416 8.9844C10.1416 10.7285 10.9377 11.997 10.9377 11.997L2.65896 20.2418C2.28748 20.6118 1.7674 21.5737 2.65896 22.4616L3.61419 23.4129C3.98566 23.73 4.91964 24.174 5.68384 23.4129L6.79827 22.3031C7.91272 23.4129 9.18636 22.7788 9.66398 22.1445C10.46 21.0346 9.50478 19.9247 9.50478 19.9247L9.82319 19.6076C11.3515 21.1297 12.6889 20.2418 13.1665 19.6076C13.9626 18.4978 13.1665 17.3879 13.1665 17.3879C12.8481 16.7536 12.2114 16.7536 13.0073 15.9609L13.9626 15.0095C14.7267 15.6437 16.2976 15.8023 16.9874 15.8023Z" stroke="#fff" stroke-width="1.5" stroke-linejoin="round"/>
<path opacity="0.5" d="M19.3756 8.9843C19.3756 10.2978 18.3064 11.3626 16.9875 11.3626C15.6686 11.3626 14.5994 10.2978 14.5994 8.9843C14.5994 7.67078 15.6686 6.60596 16.9875 6.60596C18.3064 6.60596 19.3756 7.67078 19.3756 8.9843Z" stroke="#fff" stroke-width="1.5"/>
</svg>
