<svg width="28" height="28" viewBox="0 0 28 28" fill="none" xmlns="http://www.w3.org/2000/svg">
<path d="M26.5 14C26.5 19.8925 26.5 22.8389 24.6694 24.6694C22.8389 26.5 19.8925 26.5 14 26.5C8.10744 26.5 5.16116 26.5 3.33059 24.6694C1.5 22.8389 1.5 19.8925 1.5 14C1.5 8.10744 1.5 5.16116 3.33059 3.33059C5.16116 1.5 8.10744 1.5 14 1.5" stroke="#999999" stroke-width="2.5" stroke-linecap="round"/>
<path opacity="0.5" d="M1.5 14.6251L3.68949 12.7094C4.82857 11.7127 6.54535 11.7699 7.61561 12.8401L12.9777 18.2022C13.8367 19.0614 15.189 19.1785 16.183 18.4799L16.5557 18.218C17.986 17.2127 19.9211 17.3292 21.2206 18.4987L25.25 22.1251" stroke="#999999" stroke-width="2.5" stroke-linecap="round"/>
<path d="M17.75 5.875H22.125M22.125 5.875H26.5M22.125 5.875V10.25M22.125 5.875V1.5" stroke="#999999" stroke-width="2.5" stroke-linecap="round"/>
</svg>
